HIERARCHY
ROOT Hips
{
	OFFSET -0.001795 -0.223333 0.028219
	CHANNELS 6 Xposition Yposition Zposition Zrotation Yrotation Xrotation 
	JOINT LeftUpLeg
	{
		OFFSET 0.069520 -0.091406 -0.006815
		CHANNELS 3 Zrotation Yrotation Xrotation
		JOINT LeftLeg
		{
			OFFSET 0.034277 -0.375199 -0.004496
			CHANNELS 3 Zrotation Yrotation Xrotation
			JOINT LeftFoot
			{
				OFFSET -0.013596 -0.397961 -0.043693
				CHANNELS 3 Zrotation Yrotation Xrotation
				JOINT LeftToe
				{
					OFFSET 0.026358 -0.055791 0.119288
					CHANNELS 3 Zrotation Yrotation Xrotation
					End Site
					{
						OFFSET 0.000000 0.000000 0.000000
					}
				}
			}
		}
	}
	JOINT RightUpLeg
	{
		OFFSET -0.067670 -0.090522 -0.004320
		CHANNELS 3 Zrotation Yrotation Xrotation
		JOINT RightLeg
		{
			OFFSET -0.038290 -0.382569 -0.008850
			CHANNELS 3 Zrotation Yrotation Xrotation
			JOINT RightFoot
			{
				OFFSET 0.015774 -0.398415 -0.042312
				CHANNELS 3 Zrotation Yrotation Xrotation
				JOINT RightToe
				{
					OFFSET -0.025372 -0.048144 0.123348
					CHANNELS 3 Zrotation Yrotation Xrotation
					End Site
					{
						OFFSET 0.000000 0.000000 0.000000
					}
				}
			}
		}
	}
	JOINT Spine
	{
		OFFSET -0.002533 0.108963 -0.026696
		CHANNELS 3 Zrotation Yrotation Xrotation
		JOINT Spine1
		{
			OFFSET 0.005487 0.135180 0.001092
			CHANNELS 3 Zrotation Yrotation Xrotation
			JOINT Spine2
			{
				OFFSET 0.001457 0.052922 0.025425
				CHANNELS 3 Zrotation Yrotation Xrotation
				JOINT Neck
				{
					OFFSET -0.002778 0.213870 -0.042857
					CHANNELS 3 Zrotation Yrotation Xrotation
					JOINT Head
					{
						OFFSET 0.005152 0.064970 0.051349
						CHANNELS 3 Zrotation Yrotation Xrotation
						End Site
						{
							OFFSET 0.000000 0.000000 0.000000
						}
					}
				}
				JOINT LeftShoulder
				{
					OFFSET 0.078845 0.121749 -0.034090
					CHANNELS 3 Zrotation Yrotation Xrotation
					JOINT LeftArm
					{
						OFFSET 0.090977 0.030469 -0.008868
						CHANNELS 3 Zrotation Yrotation Xrotation
						JOINT LeftForeArm
						{
							OFFSET 0.259612 -0.012772 -0.027456
							CHANNELS 3 Zrotation Yrotation Xrotation
							JOINT LeftHand
							{
								OFFSET 0.249234 0.008986 -0.001171
								CHANNELS 3 Zrotation Yrotation Xrotation
								End Site
								{
									OFFSET 0.000000 0.000000 0.000000
								}
							}
						}
					}
				}
				JOINT RightShoulder
				{
					OFFSET -0.081759 0.118833 -0.038615
					CHANNELS 3 Zrotation Yrotation Xrotation
					JOINT RightArm
					{
						OFFSET -0.096012 0.032551 -0.009143
						CHANNELS 3 Zrotation Yrotation Xrotation
						JOINT RightForeArm
						{
							OFFSET -0.253742 -0.013329 -0.021401
							CHANNELS 3 Zrotation Yrotation Xrotation
							JOINT RightHand
							{
								OFFSET -0.255298 0.007772 -0.005559
								CHANNELS 3 Zrotation Yrotation Xrotation
								End Site
								{
									OFFSET 0.000000 0.000000 0.000000
								}
							}
						}
					}
				}
			}
		}
	}
}
MOTION
Frames: 9
Frame Time: 0.050000
-0.028964 0.936026 -0.018268 -3.596563 37.182779 9.821919 8.441578 -1.292221 -10.809240 -0.443777 0.003405 -5.195943 -8.548669 -9.032583 8.230320 0.000000 0.000000 0.000000 -1.401230 0.458527 -6.204233 5.350453 -1.015833 -5.070328 -4.873875 -9.948443 10.692639 0.000000 0.000000 0.000000 -3.973809 -0.018805 -3.918817 -4.425248 1.419378 1.715269 2.943481 2.320112 6.273103 0.142312 3.831454 -21.765908 0.000000 0.000000 0.000000 -24.210677 -10.640366 -3.810309 -47.332757 -7.778121 -0.533355 -11.192746 -39.747208 3.094529 0.000000 0.000000 0.000000 19.577656 11.675249 11.049236 47.532862 17.264141 0.348050 55.010558 67.237950 48.218685 0.000000 0.000000 0.000000 
-0.028404 0.936460 -0.019039 -3.461803 37.308121 9.853812 8.262491 -1.289522 -10.930021 -0.449819 0.004856 -4.980220 -8.666738 -9.135855 8.341151 0.000000 0.000000 0.000000 -1.525895 0.453608 -6.385839 5.271166 -1.003312 -4.668032 -4.959507 -10.098421 10.724874 0.000000 0.000000 0.000000 -3.797946 -0.011801 -3.817679 -3.968900 1.244723 1.564782 3.103824 2.028597 6.139748 -0.414907 4.003765 -20.877464 0.000000 0.000000 0.000000 -24.865994 -9.851865 -4.376912 -46.665790 -6.262253 -1.003557 -11.643725 -39.397446 3.268383 0.000000 0.000000 0.000000 20.639493 9.254712 9.837355 48.503014 12.183726 -1.685089 63.812751 63.933379 52.729623 0.000000 0.000000 0.000000 
-0.028183 0.937220 -0.020295 -3.451393 36.878880 9.638477 8.169287 -1.250514 -10.567865 -0.470556 0.007140 -5.127515 -8.597227 -8.818373 8.523057 0.000000 0.000000 0.000000 -1.486797 0.462777 -6.468154 4.987298 -0.948113 -4.254374 -4.812557 -9.808588 10.788942 0.000000 0.000000 0.000000 -3.527308 -0.010289 -3.994395 -3.714280 1.129965 1.748209 3.022597 1.751141 6.269680 -0.467978 3.939968 -20.391731 0.000000 0.000000 0.000000 -24.745503 -9.121619 -4.571024 -46.799146 -5.933113 -1.214239 -9.810721 -38.030921 2.605747 0.000000 0.000000 0.000000 22.119753 7.648875 9.112578 48.004448 8.629700 -3.205387 71.755361 61.100305 56.614677 0.000000 0.000000 0.000000 
-0.028180 0.937562 -0.021870 -3.399915 36.391402 9.262640 7.997194 -1.202221 -10.198939 -0.434833 0.014437 -4.948192 -8.413878 -8.575369 8.437708 0.000000 0.000000 0.000000 -1.575743 0.460439 -6.523946 4.860450 -0.921134 -3.573074 -4.626610 -9.509944 10.599925 0.000000 0.000000 0.000000 -3.363251 0.003323 -3.755881 -3.330139 0.997327 1.655653 3.196382 1.532333 6.257273 -0.883238 4.021537 -19.520790 0.000000 0.000000 0.000000 -24.957582 -8.384715 -4.854637 -46.564822 -5.051318 -1.568947 -9.215252 -37.422520 2.433047 0.000000 0.000000 0.000000 22.628510 6.254608 8.168280 48.093061 5.894322 -4.201861 79.283422 58.536496 60.474023 0.000000 0.000000 0.000000 
-0.028186 0.937905 -0.023596 -3.349004 35.813202 9.177924 7.767705 -1.158662 -9.908553 -0.285363 0.020070 -5.177395 -8.235345 -8.185377 8.510440 0.000000 0.000000 0.000000 -1.821850 0.455931 -6.830400 4.983741 -0.939731 -3.054023 -4.386379 -9.074062 10.533519 0.000000 0.000000 0.000000 -3.213190 0.004457 -3.933209 -3.368498 1.008194 1.821481 3.541740 1.117095 6.067047 -0.982286 3.926450 -18.949582 0.000000 0.000000 0.000000 -24.742868 -7.857863 -4.739693 -46.937238 -4.786903 -1.836419 -7.887240 -36.835979 2.064177 0.000000 0.000000 0.000000 23.147427 5.432800 7.463020 47.927870 3.672238 -4.970969 85.319247 56.614426 63.540318 0.000000 0.000000 0.000000 
-0.028175 0.937864 -0.025452 -3.409370 34.893924 8.875557 7.606433 -1.107283 -9.504537 -0.118046 0.030099 -5.178790 -7.790554 -7.634766 8.263186 0.000000 0.000000 0.000000 -2.057105 0.448871 -7.009588 5.201760 -0.973215 -2.524090 -3.983211 -8.359002 10.322591 0.000000 0.000000 0.000000 -3.057792 0.009881 -4.005001 -3.178981 0.960509 1.756068 3.678205 0.751459 6.161816 -1.084868 3.887931 -18.820411 0.000000 0.000000 0.000000 -25.050175 -7.084920 -4.934752 -47.183860 -4.534358 -2.040764 -7.220833 -36.968140 1.937662 0.000000 0.000000 0.000000 23.640133 4.329528 6.572900 47.589949 1.958827 -5.548509 88.957607 54.577775 64.371605 0.000000 0.000000 0.000000 
-0.028354 0.937741 -0.027233 -3.316265 34.293326 8.626332 7.422375 -1.065730 -9.202245 -0.112194 0.035712 -5.078380 -7.509584 -7.304220 8.091262 0.000000 0.000000 0.000000 -2.466239 0.418388 -7.187822 5.569206 -1.047492 -1.886771 -3.707471 -7.887139 10.068338 0.000000 0.000000 0.000000 -2.873039 0.017441 -3.923717 -3.293972 1.052945 1.563720 4.024671 0.521503 6.485739 -1.357893 3.979838 -18.687622 0.000000 0.000000 0.000000 -25.708611 -6.683480 -5.136765 -47.199849 -4.219456 -2.195958 -6.547047 -38.144719 1.816928 0.000000 0.000000 0.000000 23.653487 3.387867 5.788438 47.821451 0.374141 -6.105218 90.610898 53.509177 64.586051 0.000000 0.000000 0.000000 
-0.028774 0.937665 -0.028827 -3.196378 33.592849 8.474353 7.211419 -1.028260 -8.976672 -0.065837 0.041742 -4.964125 -7.188302 -6.879794 7.944622 0.000000 0.000000 0.000000 -2.559325 0.420203 -7.297283 5.359514 -1.003886 -1.551003 -3.439059 -7.419214 9.828787 0.000000 0.000000 0.000000 -2.786109 0.017112 -4.142005 -3.278135 1.057815 1.615272 4.196395 0.206022 6.546413 -1.648513 4.075590 -18.763847 0.000000 0.000000 0.000000 -26.275368 -5.829226 -5.498780 -47.403789 -3.952197 -2.375513 -6.540011 -39.516833 1.937301 0.000000 0.000000 0.000000 23.488528 2.711684 5.084876 48.345179 -0.873881 -6.525209 90.628972 52.558007 63.343029 0.000000 0.000000 0.000000 
-0.029569 0.937694 -0.030111 -3.130474 33.273731 8.150581 7.063487 -0.993451 -8.666014 0.034639 0.044458 -4.870746 -7.067126 -6.727797 7.873664 0.000000 0.000000 0.000000 -2.573319 0.407030 -7.005105 5.229992 -0.974101 -1.590960 -3.301021 -7.178659 9.745314 0.000000 0.000000 0.000000 -2.732492 0.018977 -4.050082 -3.383347 1.122765 1.535389 4.310454 -0.110272 6.763593 -1.985731 4.229574 -18.924944 0.000000 0.000000 0.000000 -26.805448 -5.446430 -5.663829 -47.659701 -3.978297 -2.441700 -6.391071 -40.680852 1.992839 0.000000 0.000000 0.000000 23.459747 2.315400 4.667198 48.501741 -1.552172 -6.761135 88.397508 52.591702 61.141368 0.000000 0.000000 0.000000 
